#N canvas 472 146 1280 653 10;
#X msg 10 -58 create \, 1;
#X msg 25 -33 destroy \, 0;
#X obj 10 98 tgl 15 0 empty empty empty 17 7 0 10 -262144 -1 -1 1 1
;
#X obj 10 434 gemhead;
#X obj 14 174 adc~;
#X obj 14 194 env~;
#X floatatom 13 212 5 0 0 0 - - -;
#X obj 15 284 line;
#X obj 10 410 tgl 15 0 empty empty empty 17 7 0 10 -262144 -1 -1 1
1;
#X obj 10 483 pix_texture;
#X msg 43 -12 FSAA 2;
#X msg 11 119 \; pd dsp \$1;
#X msg 50 46 fullscreen \$1;
#X obj 60 18 tgl 15 0 empty empty empty 17 7 0 10 -262144 -1 -1 0 1
;
#X obj 13 460 pix_image gigtag_applogo2.png;
#X obj 104 246 gemhead;
#X obj 103 224 tgl 15 0 empty empty empty 17 7 0 10 -262144 -1 -1 1
1;
#X obj 853 302 gemhead;
#X obj 175 110 adc~;
#X obj 177 134 env~;
#X floatatom 178 155 5 0 0 0 - - -;
#X obj 176 219 line;
#X obj 853 278 tgl 15 0 empty empty empty 17 7 0 10 -262144 -1 -1 0
1;
#X obj 845 328 pix_image gigtag_applogo1.png;
#X obj 843 349 pix_texture;
#X obj 104 270 translateXYZ 0 0 0;
#X obj 104 320 circle 2;
#X obj 105 295 color 0 1 0;
#X obj 10 545 circle;
#X obj 285 305 *;
#X floatatom 9 319 5 0 0 0 - - -;
#X floatatom 304 272 5 0 0 0 - - -;
#X obj 325 467 gemhead;
#X obj 325 445 tgl 15 0 empty empty empty 17 7 0 10 -262144 -1 -1 1
1;
#X obj 325 488 translateXYZ 0 0 0;
#X floatatom 272 440 5 0 0 0 - - -;
#X obj 325 537 circle 3;
#X obj 245 514 *;
#X floatatom 215 473 5 0 0 0 - - -;
#X obj 837 399 circle 0.2;
#X obj 841 372 translateXYZ -1.7 -1.7 2;
#X obj 1060 295 gemhead;
#X obj 1060 271 tgl 15 0 empty empty empty 17 7 0 10 -262144 -1 -1
0 1;
#X obj 1050 342 pix_texture;
#X obj 1044 392 circle 0.2;
#X obj 836 446 gemhead;
#X obj 836 422 tgl 15 0 empty empty empty 17 7 0 10 -262144 -1 -1 0
1;
#X obj 828 472 pix_image gigtag_applogo1.png;
#X obj 826 493 pix_texture;
#X obj 820 543 circle 0.2;
#X obj 1047 451 gemhead;
#X obj 1047 427 tgl 15 0 empty empty empty 17 7 0 10 -262144 -1 -1
0 1;
#X obj 1037 498 pix_texture;
#X obj 1052 321 pix_image gigtag_applogo2.png;
#X obj 1039 477 pix_image gigtag_applogo2.png;
#X obj 824 516 translateXYZ 1.7 1.7 2;
#X obj 1035 521 translateXYZ -1.7 1.7 2;
#X obj 1048 365 translateXYZ 1.7 -1.7 2;
#X obj 1031 548 circle 0.2;
#X obj 15 236 * 0.03;
#X obj 179 181 * 0.03;
#X msg 15 259 \$1 400;
#X obj 409 71 gemhead;
#X obj 338 232 *;
#X obj 410 53 tgl 15 0 empty empty empty 17 7 0 10 -262144 -1 -1 0
1;
#X obj 636 -3 gemhead;
#X msg 571 60 draw line;
#X obj 637 -18 tgl 15 0 empty empty empty 17 7 0 10 -262144 -1 -1 0
1;
#X obj 518 363 gemhead;
#X msg 456 446 draw line;
#X obj 518 337 tgl 15 0 empty empty empty 17 7 0 10 -262144 -1 -1 0
1;
#X obj 520 445 circle 2;
#X obj 518 391 translateXYZ 0 0 0.07;
#X obj 410 139 circle 2;
#X obj 636 61 circle 2;
#X msg 348 138 draw line;
#X floatatom 382 161 5 0 0 0 - - -;
#X obj 410 115 color 0 0 0;
#X obj 636 39 color 0 0 0;
#X obj 410 91 translateXYZ 0 0 2;
#X obj 636 17 translateXYZ 0 0 2.5;
#X obj 325 511 color 0 1 1;
#X obj 11 514 translateXYZ 0 0 1;
#X obj 518 415 color 0 0 0;
#X msg 178 201 \$1 50;
#X obj 9 68 gemwin 30;
#X msg 270 379 3;
#X msg 305 200 2;
#X msg 349 161 1;
#X msg 217 -9 loadbang;
#X obj 170 -43 bng 15 250 50 0 empty empty empty 17 7 0 10 -262144
-1 -1;
#X text 326 561 Large Blue Circle;
#X text 16 568 Middle Logo;
#X text 123 335 Green Circle;
#X text 473 139 Black Circles with no filling;
#X text 967 235 Logo Circles in the Corners;
#X connect 0 0 85 0;
#X connect 1 0 85 0;
#X connect 2 0 11 0;
#X connect 3 0 14 0;
#X connect 4 0 5 0;
#X connect 5 0 6 0;
#X connect 6 0 59 0;
#X connect 7 0 30 0;
#X connect 7 0 38 0;
#X connect 8 0 3 0;
#X connect 9 0 82 0;
#X connect 10 0 85 0;
#X connect 12 0 85 0;
#X connect 13 0 12 0;
#X connect 14 0 9 0;
#X connect 15 0 25 0;
#X connect 16 0 15 0;
#X connect 17 0 23 0;
#X connect 18 0 19 0;
#X connect 19 0 20 0;
#X connect 20 0 60 0;
#X connect 21 0 29 0;
#X connect 21 0 63 0;
#X connect 22 0 17 0;
#X connect 23 0 24 0;
#X connect 24 0 40 0;
#X connect 25 0 27 0;
#X connect 27 0 26 0;
#X connect 29 0 26 1;
#X connect 30 0 28 1;
#X connect 30 0 71 1;
#X connect 31 0 29 1;
#X connect 32 0 34 0;
#X connect 33 0 32 0;
#X connect 34 0 81 0;
#X connect 35 0 37 1;
#X connect 37 0 36 1;
#X connect 38 0 37 0;
#X connect 40 0 39 0;
#X connect 41 0 53 0;
#X connect 42 0 41 0;
#X connect 43 0 57 0;
#X connect 45 0 47 0;
#X connect 46 0 45 0;
#X connect 47 0 48 0;
#X connect 48 0 55 0;
#X connect 50 0 54 0;
#X connect 51 0 50 0;
#X connect 52 0 56 0;
#X connect 53 0 43 0;
#X connect 54 0 52 0;
#X connect 55 0 49 0;
#X connect 56 0 58 0;
#X connect 57 0 44 0;
#X connect 59 0 61 0;
#X connect 60 0 84 0;
#X connect 61 0 7 0;
#X connect 62 0 79 0;
#X connect 63 0 73 1;
#X connect 63 0 74 1;
#X connect 64 0 62 0;
#X connect 65 0 80 0;
#X connect 66 0 74 0;
#X connect 67 0 65 0;
#X connect 68 0 72 0;
#X connect 69 0 71 0;
#X connect 70 0 68 0;
#X connect 72 0 83 0;
#X connect 75 0 73 0;
#X connect 76 0 63 1;
#X connect 77 0 73 0;
#X connect 78 0 74 0;
#X connect 79 0 77 0;
#X connect 80 0 78 0;
#X connect 81 0 36 0;
#X connect 82 0 28 0;
#X connect 83 0 71 0;
#X connect 84 0 21 0;
#X connect 86 0 35 0;
#X connect 87 0 31 0;
#X connect 88 0 76 0;
#X connect 89 0 88 0;
#X connect 89 0 87 0;
#X connect 89 0 75 0;
#X connect 89 0 66 0;
#X connect 89 0 86 0;
#X connect 89 0 69 0;
#X connect 90 0 89 0;
